<svg xmlns="http://www.w3.org/2000/svg" xmlns:xlink="http://www.w3.org/1999/xlink" width="161" zoomAndPan="magnify" viewBox="0 0 120.75 52.499999" height="70" preserveAspectRatio="xMidYMid meet" version="1.0"><defs><g><g id="id1"/></g><clipPath id="id2"><path d="M 0.445312 18 L 15 18 L 15 34 L 0.445312 34 Z M 0.445312 18 " clip-rule="nonzero"/></clipPath><clipPath id="id3"><path d="M 96 17 L 118 17 L 118 27 L 96 27 Z M 96 17 " clip-rule="nonzero"/></clipPath><clipPath id="id4"><path d="M 98.902344 6.1875 L 120.28125 10.128906 L 116.960938 28.144531 L 95.582031 24.203125 Z M 98.902344 6.1875 " clip-rule="nonzero"/></clipPath><clipPath id="id5"><path d="M 98.902344 6.1875 L 120.28125 10.128906 L 116.960938 28.144531 L 95.582031 24.203125 Z M 98.902344 6.1875 " clip-rule="nonzero"/></clipPath><clipPath id="id6"><path d="M 99 7 L 115 7 L 115 22 L 99 22 Z M 99 7 " clip-rule="nonzero"/></clipPath><clipPath id="id7"><path d="M 98.902344 6.1875 L 120.28125 10.128906 L 116.960938 28.144531 L 95.582031 24.203125 Z M 98.902344 6.1875 " clip-rule="nonzero"/></clipPath><clipPath id="id8"><path d="M 98.902344 6.1875 L 120.28125 10.128906 L 116.960938 28.144531 L 95.582031 24.203125 Z M 98.902344 6.1875 " clip-rule="nonzero"/></clipPath><clipPath id="id9"><path d="M 110 13 L 115 13 L 115 22 L 110 22 Z M 110 13 " clip-rule="nonzero"/></clipPath><clipPath id="id10"><path d="M 98.902344 6.1875 L 120.28125 10.128906 L 116.960938 28.144531 L 95.582031 24.203125 Z M 98.902344 6.1875 " clip-rule="nonzero"/></clipPath><clipPath id="id11"><path d="M 98.902344 6.1875 L 120.28125 10.128906 L 116.960938 28.144531 L 95.582031 24.203125 Z M 98.902344 6.1875 " clip-rule="nonzero"/></clipPath><clipPath id="id12"><path d="M 108 8 L 114 8 L 114 12 L 108 12 Z M 108 8 " clip-rule="nonzero"/></clipPath><clipPath id="id13"><path d="M 98.902344 6.1875 L 120.28125 10.128906 L 116.960938 28.144531 L 95.582031 24.203125 Z M 98.902344 6.1875 " clip-rule="nonzero"/></clipPath><clipPath id="id14"><path d="M 98.902344 6.1875 L 120.28125 10.128906 L 116.960938 28.144531 L 95.582031 24.203125 Z M 98.902344 6.1875 " clip-rule="nonzero"/></clipPath><clipPath id="id15"><path d="M 95 11 L 120.054688 11 L 120.054688 29 L 95 29 Z M 95 11 " clip-rule="nonzero"/></clipPath><clipPath id="id16"><path d="M 98.902344 6.1875 L 120.28125 10.128906 L 116.960938 28.144531 L 95.582031 24.203125 Z M 98.902344 6.1875 " clip-rule="nonzero"/></clipPath><clipPath id="id17"><path d="M 98.902344 6.1875 L 120.28125 10.128906 L 116.960938 28.144531 L 95.582031 24.203125 Z M 98.902344 6.1875 " clip-rule="nonzero"/></clipPath><clipPath id="id18"><path d="M 95 10 L 120.054688 10 L 120.054688 28 L 95 28 Z M 95 10 " clip-rule="nonzero"/></clipPath><clipPath id="id19"><path d="M 98.902344 6.1875 L 120.28125 10.128906 L 116.960938 28.144531 L 95.582031 24.203125 Z M 98.902344 6.1875 " clip-rule="nonzero"/></clipPath><clipPath id="id20"><path d="M 98.902344 6.1875 L 120.28125 10.128906 L 116.960938 28.144531 L 95.582031 24.203125 Z M 98.902344 6.1875 " clip-rule="nonzero"/></clipPath><clipPath id="id21"><path d="M 111 11 L 120 11 L 120 22 L 111 22 Z M 111 11 " clip-rule="nonzero"/></clipPath><clipPath id="id22"><path d="M 98.902344 6.1875 L 120.28125 10.128906 L 116.960938 28.144531 L 95.582031 24.203125 Z M 98.902344 6.1875 " clip-rule="nonzero"/></clipPath><clipPath id="id23"><path d="M 98.902344 6.1875 L 120.28125 10.128906 L 116.960938 28.144531 L 95.582031 24.203125 Z M 98.902344 6.1875 " clip-rule="nonzero"/></clipPath><clipPath id="id24"><path d="M 111 13 L 117 13 L 117 21 L 111 21 Z M 111 13 " clip-rule="nonzero"/></clipPath><clipPath id="id25"><path d="M 98.902344 6.1875 L 120.28125 10.128906 L 116.960938 28.144531 L 95.582031 24.203125 Z M 98.902344 6.1875 " clip-rule="nonzero"/></clipPath><clipPath id="id26"><path d="M 98.902344 6.1875 L 120.28125 10.128906 L 116.960938 28.144531 L 95.582031 24.203125 Z M 98.902344 6.1875 " clip-rule="nonzero"/></clipPath></defs><g clip-path="url(#id2)"><g fill="rgb(0%, 0%, 0%)" fill-opacity="1"><g transform="translate(0.445756, 33.055905)"><g><path d="M 14.1875 -8.125 L 14.1875 -4.984375 C 13.8125 -3.253906 12.988281 -1.945312 11.71875 -1.0625 C 10.445312 -0.175781 9.035156 0.265625 7.484375 0.265625 C 5.523438 0.265625 3.851562 -0.46875 2.46875 -1.9375 C 1.09375 -3.40625 0.40625 -5.175781 0.40625 -7.25 C 0.40625 -9.363281 1.078125 -11.144531 2.421875 -12.59375 C 3.773438 -14.050781 5.460938 -14.78125 7.484375 -14.78125 C 9.835938 -14.78125 11.703125 -13.953125 13.078125 -12.296875 L 10.90625 -9.921875 C 10.132812 -11.160156 9.054688 -11.78125 7.671875 -11.78125 C 6.648438 -11.78125 5.773438 -11.335938 5.046875 -10.453125 C 4.328125 -9.566406 3.96875 -8.5 3.96875 -7.25 C 3.96875 -6.019531 4.328125 -4.96875 5.046875 -4.09375 C 5.773438 -3.21875 6.648438 -2.78125 7.671875 -2.78125 C 8.515625 -2.78125 9.25 -3.035156 9.875 -3.546875 C 10.5 -4.054688 10.8125 -4.734375 10.8125 -5.578125 L 7.484375 -5.578125 L 7.484375 -8.125 Z M 14.1875 -8.125 "/></g></g></g></g><g fill="rgb(0%, 0%, 0%)" fill-opacity="1"><g transform="translate(14.155812, 33.055905)"><g><path d="M 10.1875 -4.078125 L 3.640625 -4.078125 C 3.640625 -3.441406 3.84375 -2.972656 4.25 -2.671875 C 4.664062 -2.367188 5.113281 -2.21875 5.59375 -2.21875 C 6.09375 -2.21875 6.488281 -2.285156 6.78125 -2.421875 C 7.082031 -2.554688 7.421875 -2.820312 7.796875 -3.21875 L 10.046875 -2.09375 C 9.109375 -0.519531 7.546875 0.265625 5.359375 0.265625 C 4.003906 0.265625 2.835938 -0.195312 1.859375 -1.125 C 0.890625 -2.0625 0.40625 -3.1875 0.40625 -4.5 C 0.40625 -5.8125 0.890625 -6.9375 1.859375 -7.875 C 2.835938 -8.820312 4.003906 -9.296875 5.359375 -9.296875 C 6.796875 -9.296875 7.960938 -8.878906 8.859375 -8.046875 C 9.753906 -7.222656 10.203125 -6.039062 10.203125 -4.5 C 10.203125 -4.289062 10.195312 -4.148438 10.1875 -4.078125 Z M 3.734375 -5.8125 L 7.15625 -5.8125 C 7.09375 -6.28125 6.910156 -6.640625 6.609375 -6.890625 C 6.304688 -7.140625 5.921875 -7.265625 5.453125 -7.265625 C 4.941406 -7.265625 4.53125 -7.128906 4.21875 -6.859375 C 3.914062 -6.585938 3.753906 -6.238281 3.734375 -5.8125 Z M 3.734375 -5.8125 "/></g></g></g><g fill="rgb(0%, 0%, 0%)" fill-opacity="1"><g transform="translate(23.888367, 33.055905)"><g><path d="M 1.0625 0 L 1.0625 -9.03125 L 4.171875 -9.03125 L 4.171875 -7.71875 L 4.203125 -7.71875 C 4.222656 -7.769531 4.257812 -7.828125 4.3125 -7.890625 C 4.375 -7.960938 4.488281 -8.085938 4.65625 -8.265625 C 4.832031 -8.441406 5.019531 -8.597656 5.21875 -8.734375 C 5.425781 -8.878906 5.6875 -9.007812 6 -9.125 C 6.3125 -9.238281 6.632812 -9.296875 6.96875 -9.296875 C 7.3125 -9.296875 7.644531 -9.25 7.96875 -9.15625 C 8.300781 -9.0625 8.539062 -8.96875 8.6875 -8.875 L 8.9375 -8.71875 L 7.640625 -6.09375 C 7.253906 -6.414062 6.710938 -6.578125 6.015625 -6.578125 C 5.640625 -6.578125 5.316406 -6.492188 5.046875 -6.328125 C 4.773438 -6.171875 4.582031 -5.972656 4.46875 -5.734375 C 4.363281 -5.503906 4.285156 -5.304688 4.234375 -5.140625 C 4.191406 -4.972656 4.171875 -4.84375 4.171875 -4.75 L 4.171875 0 Z M 1.0625 0 "/></g></g></g><g fill="rgb(0%, 0%, 0%)" fill-opacity="1"><g transform="translate(31.772968, 33.055905)"><g><path d="M 1.0625 0 L 1.0625 -9.03125 L 4.171875 -9.03125 L 4.171875 -8.078125 L 4.203125 -8.078125 C 5.015625 -8.890625 5.878906 -9.296875 6.796875 -9.296875 C 7.453125 -9.296875 8.066406 -9.160156 8.640625 -8.890625 C 9.210938 -8.617188 9.644531 -8.203125 9.9375 -7.640625 C 10.851562 -8.742188 11.851562 -9.296875 12.9375 -9.296875 C 13.894531 -9.296875 14.71875 -9.023438 15.40625 -8.484375 C 16.101562 -7.941406 16.453125 -7.097656 16.453125 -5.953125 L 16.453125 0 L 13.34375 0 L 13.34375 -5.109375 C 13.34375 -5.585938 13.207031 -5.988281 12.9375 -6.3125 C 12.675781 -6.632812 12.28125 -6.796875 11.75 -6.796875 C 11.289062 -6.796875 10.941406 -6.65625 10.703125 -6.375 C 10.460938 -6.101562 10.332031 -5.773438 10.3125 -5.390625 L 10.3125 0 L 7.203125 0 L 7.203125 -5.109375 C 7.203125 -5.585938 7.066406 -5.988281 6.796875 -6.3125 C 6.535156 -6.632812 6.140625 -6.796875 5.609375 -6.796875 C 5.128906 -6.796875 4.769531 -6.644531 4.53125 -6.34375 C 4.289062 -6.039062 4.171875 -5.6875 4.171875 -5.28125 L 4.171875 0 Z M 1.0625 0 "/></g></g></g><g fill="rgb(0%, 0%, 0%)" fill-opacity="1"><g transform="translate(48.228552, 33.055905)"><g><path d="M 1.671875 -1.109375 C 0.828125 -2.035156 0.40625 -3.164062 0.40625 -4.5 C 0.40625 -5.84375 0.828125 -6.976562 1.671875 -7.90625 C 2.515625 -8.832031 3.585938 -9.296875 4.890625 -9.296875 C 6.085938 -9.296875 7.070312 -8.914062 7.84375 -8.15625 L 7.84375 -9.03125 L 10.96875 -9.03125 L 10.96875 0 L 7.875 0 L 7.875 -1.015625 L 7.84375 -1.015625 C 7.070312 -0.160156 6.085938 0.265625 4.890625 0.265625 C 3.585938 0.265625 2.515625 -0.191406 1.671875 -1.109375 Z M 4.3125 -6.03125 C 3.914062 -5.632812 3.71875 -5.125 3.71875 -4.5 C 3.71875 -3.882812 3.910156 -3.378906 4.296875 -2.984375 C 4.679688 -2.585938 5.191406 -2.390625 5.828125 -2.390625 C 6.429688 -2.390625 6.929688 -2.585938 7.328125 -2.984375 C 7.722656 -3.390625 7.921875 -3.894531 7.921875 -4.5 C 7.921875 -5.125 7.71875 -5.632812 7.3125 -6.03125 C 6.90625 -6.4375 6.410156 -6.640625 5.828125 -6.640625 C 5.222656 -6.640625 4.71875 -6.4375 4.3125 -6.03125 Z M 4.3125 -6.03125 "/></g></g></g><g fill="rgb(0%, 0%, 0%)" fill-opacity="1"><g transform="translate(59.369071, 33.055905)"><g><path d="M 1.0625 0 L 1.0625 -9.03125 L 4.171875 -9.03125 L 4.171875 -8.078125 L 4.203125 -8.078125 C 5.015625 -8.890625 5.878906 -9.296875 6.796875 -9.296875 C 7.234375 -9.296875 7.671875 -9.234375 8.109375 -9.109375 C 8.554688 -8.992188 8.984375 -8.8125 9.390625 -8.5625 C 9.796875 -8.320312 10.125 -7.972656 10.375 -7.515625 C 10.625 -7.066406 10.75 -6.546875 10.75 -5.953125 L 10.75 0 L 7.640625 0 L 7.640625 -5.109375 C 7.640625 -5.578125 7.488281 -5.984375 7.1875 -6.328125 C 6.882812 -6.679688 6.492188 -6.859375 6.015625 -6.859375 C 5.546875 -6.859375 5.117188 -6.675781 4.734375 -6.3125 C 4.359375 -5.945312 4.171875 -5.546875 4.171875 -5.109375 L 4.171875 0 Z M 1.0625 0 "/></g></g></g><g fill="rgb(0%, 0%, 0%)" fill-opacity="1"><g transform="translate(70.122397, 33.055905)"><g><path d="M 8.78125 -2.984375 C 9.28125 -2.984375 9.769531 -3.0625 10.25 -3.21875 C 10.726562 -3.375 11.078125 -3.519531 11.296875 -3.65625 L 11.625 -3.890625 L 13.03125 -1.078125 C 12.988281 -1.035156 12.925781 -0.984375 12.84375 -0.921875 C 12.757812 -0.867188 12.566406 -0.765625 12.265625 -0.609375 C 11.972656 -0.453125 11.65625 -0.3125 11.3125 -0.1875 C 10.96875 -0.0703125 10.519531 0.03125 9.96875 0.125 C 9.425781 0.21875 8.859375 0.265625 8.265625 0.265625 C 6.921875 0.265625 5.644531 -0.0625 4.4375 -0.71875 C 3.226562 -1.382812 2.253906 -2.296875 1.515625 -3.453125 C 0.773438 -4.617188 0.40625 -5.878906 0.40625 -7.234375 C 0.40625 -8.253906 0.617188 -9.234375 1.046875 -10.171875 C 1.484375 -11.109375 2.0625 -11.910156 2.78125 -12.578125 C 3.507812 -13.242188 4.351562 -13.773438 5.3125 -14.171875 C 6.269531 -14.578125 7.253906 -14.78125 8.265625 -14.78125 C 9.203125 -14.78125 10.066406 -14.664062 10.859375 -14.4375 C 11.648438 -14.21875 12.210938 -14 12.546875 -13.78125 L 13.03125 -13.4375 L 11.625 -10.625 C 11.539062 -10.695312 11.414062 -10.78125 11.25 -10.875 C 11.09375 -10.976562 10.765625 -11.113281 10.265625 -11.28125 C 9.773438 -11.445312 9.28125 -11.53125 8.78125 -11.53125 C 7.976562 -11.53125 7.257812 -11.398438 6.625 -11.140625 C 6 -10.878906 5.5 -10.535156 5.125 -10.109375 C 4.757812 -9.691406 4.476562 -9.238281 4.28125 -8.75 C 4.09375 -8.257812 4 -7.765625 4 -7.265625 C 4 -6.160156 4.410156 -5.171875 5.234375 -4.296875 C 6.054688 -3.421875 7.238281 -2.984375 8.78125 -2.984375 Z M 8.78125 -2.984375 "/></g></g></g><g fill="rgb(0%, 0%, 0%)" fill-opacity="1"><g transform="translate(82.494881, 33.055905)"><g><path d="M 1.0625 0 L 1.0625 -15.125 L 4.171875 -15.125 L 4.171875 0 Z M 1.0625 0 "/></g></g></g><g fill="rgb(0%, 0%, 0%)" fill-opacity="1"><g transform="translate(86.841971, 33.055905)"><g><path d="M 1.671875 -1.109375 C 0.828125 -2.035156 0.40625 -3.164062 0.40625 -4.5 C 0.40625 -5.84375 0.828125 -6.976562 1.671875 -7.90625 C 2.515625 -8.832031 3.585938 -9.296875 4.890625 -9.296875 C 6.085938 -9.296875 7.070312 -8.914062 7.84375 -8.15625 L 7.84375 -9.03125 L 10.96875 -9.03125 L 10.96875 0 L 7.875 0 L 7.875 -1.015625 L 7.84375 -1.015625 C 7.070312 -0.160156 6.085938 0.265625 4.890625 0.265625 C 3.585938 0.265625 2.515625 -0.191406 1.671875 -1.109375 Z M 4.3125 -6.03125 C 3.914062 -5.632812 3.71875 -5.125 3.71875 -4.5 C 3.71875 -3.882812 3.910156 -3.378906 4.296875 -2.984375 C 4.679688 -2.585938 5.191406 -2.390625 5.828125 -2.390625 C 6.429688 -2.390625 6.929688 -2.585938 7.328125 -2.984375 C 7.722656 -3.390625 7.921875 -3.894531 7.921875 -4.5 C 7.921875 -5.125 7.71875 -5.632812 7.3125 -6.03125 C 6.90625 -6.4375 6.410156 -6.640625 5.828125 -6.640625 C 5.222656 -6.640625 4.71875 -6.4375 4.3125 -6.03125 Z M 4.3125 -6.03125 "/></g></g></g><g fill="rgb(0%, 0%, 0%)" fill-opacity="1"><g transform="translate(97.982489, 33.055905)"><g><path d="M 10.34375 -7.90625 C 11.1875 -6.988281 11.609375 -5.859375 11.609375 -4.515625 C 11.609375 -3.179688 11.1875 -2.050781 10.34375 -1.125 C 9.5 -0.195312 8.425781 0.265625 7.125 0.265625 C 5.925781 0.265625 4.941406 -0.109375 4.171875 -0.859375 L 4.171875 4.578125 L 1.0625 4.578125 L 1.0625 -9.03125 L 4.140625 -9.03125 L 4.140625 -8 L 4.171875 -8 C 4.941406 -8.863281 5.925781 -9.296875 7.125 -9.296875 C 8.425781 -9.296875 9.5 -8.832031 10.34375 -7.90625 Z M 7.6875 -2.984375 C 8.09375 -3.390625 8.296875 -3.898438 8.296875 -4.515625 C 8.296875 -5.140625 8.101562 -5.648438 7.71875 -6.046875 C 7.332031 -6.441406 6.820312 -6.640625 6.1875 -6.640625 C 5.582031 -6.640625 5.082031 -6.4375 4.6875 -6.03125 C 4.289062 -5.632812 4.09375 -5.128906 4.09375 -4.515625 C 4.09375 -3.898438 4.296875 -3.390625 4.703125 -2.984375 C 5.109375 -2.585938 5.601562 -2.390625 6.1875 -2.390625 C 6.789062 -2.390625 7.289062 -2.585938 7.6875 -2.984375 Z M 7.6875 -2.984375 "/></g></g></g><g clip-path="url(#id3)"><g clip-path="url(#id4)"><g clip-path="url(#id5)"><path fill="rgb(0%, 50.19989%, 21.569824%)" d="M 117.75 23.773438 C 117.695312 24.058594 117.574219 24.332031 117.386719 24.585938 C 117.199219 24.84375 116.945312 25.078125 116.628906 25.292969 C 116.3125 25.511719 115.9375 25.703125 115.503906 25.867188 C 115.070312 26.035156 114.585938 26.171875 114.054688 26.285156 C 113.519531 26.394531 112.949219 26.476562 112.335938 26.53125 C 111.722656 26.582031 111.085938 26.601562 110.417969 26.59375 C 109.75 26.582031 109.066406 26.542969 108.367188 26.472656 C 107.671875 26.402344 106.972656 26.300781 106.269531 26.171875 C 105.570312 26.042969 104.878906 25.886719 104.203125 25.703125 C 103.527344 25.523438 102.875 25.316406 102.246094 25.085938 C 101.621094 24.859375 101.03125 24.609375 100.476562 24.34375 C 99.921875 24.074219 99.417969 23.796875 98.960938 23.5 C 98.5 23.207031 98.097656 22.90625 97.753906 22.59375 C 97.410156 22.285156 97.125 21.972656 96.90625 21.65625 C 96.6875 21.34375 96.535156 21.03125 96.449219 20.726562 C 96.367188 20.421875 96.347656 20.125 96.402344 19.835938 C 96.453125 19.550781 96.574219 19.277344 96.765625 19.023438 C 96.953125 18.765625 97.207031 18.53125 97.523438 18.316406 C 97.839844 18.101562 98.214844 17.910156 98.648438 17.742188 C 99.082031 17.574219 99.566406 17.4375 100.097656 17.324219 C 100.628906 17.214844 101.203125 17.132812 101.816406 17.082031 C 102.425781 17.027344 103.066406 17.007812 103.734375 17.015625 C 104.402344 17.027344 105.085938 17.066406 105.785156 17.136719 C 106.480469 17.207031 107.179688 17.308594 107.882812 17.4375 C 108.582031 17.566406 109.269531 17.722656 109.949219 17.90625 C 110.625 18.089844 111.277344 18.292969 111.90625 18.523438 C 112.53125 18.753906 113.121094 19 113.675781 19.265625 C 114.230469 19.535156 114.734375 19.816406 115.191406 20.109375 C 115.652344 20.402344 116.054688 20.703125 116.398438 21.015625 C 116.742188 21.324219 117.027344 21.636719 117.246094 21.953125 C 117.464844 22.265625 117.617188 22.578125 117.703125 22.882812 C 117.785156 23.191406 117.800781 23.488281 117.75 23.773438 Z M 117.75 23.773438 " fill-opacity="1" fill-rule="nonzero"/></g></g></g><g clip-path="url(#id6)"><g clip-path="url(#id7)"><g clip-path="url(#id8)"><path fill="rgb(0%, 50.19989%, 21.569824%)" d="M 99.441406 18.703125 C 99.441406 18.703125 103.296875 6.996094 104.941406 7.300781 C 106.582031 7.601562 107.722656 10.632812 108.816406 10.835938 C 109.910156 11.039062 112.054688 8.613281 113.699219 8.914062 C 115.339844 9.21875 114.765625 21.53125 114.765625 21.53125 L 106.800781 21.753906 Z M 99.441406 18.703125 " fill-opacity="1" fill-rule="nonzero"/></g></g></g><g clip-path="url(#id9)"><g clip-path="url(#id10)"><g clip-path="url(#id11)"><path fill="rgb(0%, 0%, 0%)" d="M 114.84375 19.027344 C 113.925781 20.203125 112.8125 20.90625 111.957031 21 C 111.398438 20.402344 111.351562 18.898438 114.84375 15.144531 C 114.832031 14.621094 114.8125 14.097656 114.789062 13.589844 C 112.128906 16.292969 109.4375 19.664062 111.054688 21.636719 L 113.628906 21.5625 C 114.023438 21.339844 114.417969 21.046875 114.796875 20.699219 C 114.8125 20.269531 114.832031 19.691406 114.84375 19.027344 Z M 114.84375 19.027344 " fill-opacity="1" fill-rule="nonzero"/></g></g></g><g clip-path="url(#id12)"><g clip-path="url(#id13)"><g clip-path="url(#id14)"><path fill="rgb(0%, 0%, 0%)" d="M 111.652344 10.796875 C 112.949219 9.90625 113.699219 8.914062 113.699219 8.914062 C 112.054688 8.613281 109.910156 11.039062 108.816406 10.835938 C 108.816406 10.835938 110.355469 11.6875 111.652344 10.796875 Z M 111.652344 10.796875 " fill-opacity="1" fill-rule="nonzero"/></g></g></g><g clip-path="url(#id15)"><g clip-path="url(#id16)"><g clip-path="url(#id17)"><path stroke-linecap="round" transform="matrix(0.547372, 0.100931, -0.10066, 0.545902, 97.433807, 1.964316)" fill="none" stroke-linejoin="miter" d="M 7.998059 27.001455 C 7.998059 27.001455 7.001399 32.874421 23.000611 32.871595 C 38.999823 32.868769 38.998429 27.001443 38.998429 27.001443 " stroke="rgb(10.5896%, 36.859131%, 12.548828%)" stroke-width="2" stroke-opacity="1" stroke-miterlimit="4"/></g></g></g><g clip-path="url(#id18)"><g clip-path="url(#id19)"><g clip-path="url(#id20)"><path stroke-linecap="round" transform="matrix(0.547372, 0.100931, -0.10066, 0.545902, 97.433807, 1.964316)" fill="none" stroke-linejoin="miter" d="M 38.000679 24.602749 C 38.000679 24.602749 39.50204 30.865372 23.003165 30.867557 C 6.497388 30.871019 8.998963 24.605322 8.998963 24.605322 " stroke="rgb(10.5896%, 36.859131%, 12.548828%)" stroke-width="2" stroke-opacity="1" stroke-miterlimit="4"/></g></g></g><g clip-path="url(#id21)"><g clip-path="url(#id22)"><g clip-path="url(#id23)"><path fill="rgb(100%, 8.628845%, 8.628845%)" d="M 119.964844 11.761719 C 112.1875 17.101562 111.515625 19.789062 112.03125 21.023438 C 114.21875 21.429688 118.757812 18.3125 119.964844 11.761719 Z M 119.964844 11.761719 " fill-opacity="1" fill-rule="nonzero"/></g></g></g><g clip-path="url(#id24)"><g clip-path="url(#id25)"><g clip-path="url(#id26)"><path fill="rgb(100%, 92.158508%, 23.139954%)" d="M 116.5 13.457031 C 111.347656 18.46875 111.320312 20.320312 111.957031 21 C 113.769531 20.804688 116.773438 17.878906 116.5 13.457031 Z M 116.5 13.457031 " fill-opacity="1" fill-rule="nonzero"/></g></g></g></svg>